<svg t="1747790533343" viewBox="0 0 1024 1024" version="1.1" xmlns="http://www.w3.org/2000/svg" p-id="6265" id="mx_n_1747790533344" width="1.2em" height="1.2m"><path fill="currentColor" d="M510.08 96c109.696 0 217.472 43.488 295.008 121.024 77.504 77.504 122.88 183.392 122.88 293.056 1.92 230.72-183.392 416-414.08 417.92-230.688 1.856-416-183.456-417.888-414.112-1.888-230.72 183.424-416 414.08-417.888z m-1.856 37.824c-209.888 0-380.064 172.064-380.064 381.952s172.064 380.064 381.952 380.064c211.776 0 381.952-172.064 380.064-381.952 0-209.92-172.064-380.064-381.952-380.064z m-160.736 96.416l162.624 259.04 164.48-257.152a334.08 334.08 0 0 1 119.136 126.72c85.12 160.704 24.576 361.12-136.128 446.208l-26.464-105.888c60.48-37.792 96.416-104 96.416-175.84 0-41.6-11.328-81.28-34.016-115.328l-141.824 215.552h-85.12l-141.76-215.552c-22.72 34.016-34.048 73.728-34.048 115.328-1.92 75.648 41.6 147.488 109.664 181.536l-1.056 4.192-1.696 6.784-2.304 9.216c-7.68 30.656-21.44 85.152-21.44 83.808-58.592-28.384-107.776-71.872-139.904-126.72-92.64-156.928-41.6-359.232 113.44-451.904z" p-id="6266"></path></svg>
